<svg xmlns="http://www.w3.org/2000/svg" width="321" height="321" viewBox="0 0 84.931248 84.931252">
   <style>
      path {
         fill: none;
         stroke: black;
         stroke-width: 1px;
         will-change: transform;
         animation-duration: 10s;
         animation-timing-function: ease-in-out;
         animation-iteration-count: infinite;
         animation-direction: alternate;
      }
      @media (prefers-color-scheme: dark) {
         path {
            stroke: white;
         }
      }

      @keyframes shiftHorizontal {
         from {
            transform: translateX(0);
         }

         to {
            transform: translateX(-16.05px);
         }
      }

      @keyframes shiftVertical {
         from {
            transform: translateY(0);
         }

         to {
            transform: translateY(-16.05px);
         }
      }

      .horizontal {
         animation-name: shiftHorizontal;
      }

      .vertical {
         animation-name: shiftVertical;
      }
   </style>
   <path class="horizontal"
      d="M 84.852818,14.142141 98.994953,6e-6 113.13709,14.142141 127.27923,1.7e-5 141.42136,14.142148 155.5635,1.1e-5 169.70563,14.142147 M 0,14.142135 14.142135,0 28.28427,14.142135 42.426411,1.0789593e-5 56.568546,14.142142 70.710683,5.3947964e-6 84.852818,14.142141" />
   <path class="horizontal"
      d="M 84.852816,70.710686 98.994956,84.852821 113.13709,70.710686 127.27923,84.85281 141.42136,70.710679 155.5635,84.852816 169.70563,70.71068 M -5.60216e-7,70.710692 14.142134,84.852827 28.284269,70.710692 42.42641,84.852816 56.568545,70.710685 70.710682,84.852822 84.852816,70.710686" />
   <path class="vertical" d="M 0,14.142135 V 183.84777" />
   <path class="vertical" d="M 84.852818,14.142141 V 183.84777" />
</svg>
